<svg xmlns="http://www.w3.org/2000/svg" width="46" height="46" viewBox="0 0 46 46">
    <g fill="none" fill-rule="evenodd">
        <g>
            <path d="M0 0H46V46H0z"/>
            <g fill="#FFF" fill-rule="nonzero">
                <path d="M19.233 10.083c1.511 0 2.267-.756 2.267-2.315V2.815C21.5 1.244 20.744.5 19.233.5h-5.037c-1.523 0-2.267.744-2.267 2.315v4.953c0 1.559.744 2.315 2.267 2.315h5.037zm-11.417 0c1.511 0 2.267-.756 2.267-2.315V2.815C10.083 1.244 9.327.5 7.816.5H2.779C1.256.5.5 1.244.5 2.815v4.953c0 1.559.756 2.315 2.279 2.315h5.037zm-.012-1.68H2.767c-.396 0-.588-.203-.588-.623V2.79c0-.42.192-.623.588-.623h5.037c.408 0 .611.204.611.624V7.78c0 .42-.203.623-.611.623zm11.43 0h-5.038c-.408 0-.6-.203-.6-.623V2.79c0-.42.192-.623.6-.623h5.037c.408 0 .6.204.6.624V7.78c0 .42-.192.623-.6.623zM6.268 6.51c.168 0 .24-.072.24-.276V4.326c0-.18-.072-.252-.24-.252H4.302c-.168 0-.228.072-.228.252v1.907c0 .204.06.276.228.276h1.967zm11.477 0c.18 0 .252-.072.252-.276V4.326c0-.18-.072-.252-.252-.252H15.78c-.168 0-.216.072-.216.252v1.907c0 .204.048.276.216.276h1.967zM7.816 21.5c1.511 0 2.267-.756 2.267-2.315v-4.953c0-1.57-.756-2.315-2.267-2.315H2.779c-1.523 0-2.279.744-2.279 2.315v4.953c0 1.56.756 2.315 2.279 2.315h5.037zm6.848-6.608c.168 0 .24-.072.24-.276v-1.907c0-.18-.072-.252-.24-.252h-1.967c-.168 0-.228.072-.228.252v1.907c0 .204.06.276.228.276h1.967zm6.044 0c.168 0 .24-.072.24-.276v-1.907c0-.18-.072-.252-.24-.252h-1.966c-.168 0-.228.072-.228.252v1.907c0 .204.06.276.228.276h1.966zM7.804 19.82H2.767c-.396 0-.588-.204-.588-.612v-5c0-.42.192-.624.588-.624h5.037c.408 0 .611.203.611.623v5.001c0 .408-.203.612-.611.612zm9.906-1.907c.18 0 .24-.072.24-.276v-1.907c0-.18-.06-.252-.24-.252h-1.967c-.168 0-.216.072-.216.252v1.907c0 .204.048.276.216.276h1.967zm-11.441.012c.168 0 .24-.072.24-.276v-1.907c0-.18-.072-.252-.24-.252H4.302c-.168 0-.228.072-.228.252v1.907c0 .204.06.276.228.276h1.967zm8.395 3.01c.168 0 .24-.072.24-.276v-1.906c0-.18-.072-.252-.24-.252h-1.967c-.168 0-.228.072-.228.252v1.906c0 .204.06.276.228.276h1.967zm6.044 0c.168 0 .24-.072.24-.276v-1.906c0-.18-.072-.252-.24-.252h-1.966c-.168 0-.228.072-.228.252v1.906c0 .204.06.276.228.276h1.966z" transform="translate(12 12)"/>
            </g>
        </g>
    </g>
</svg>
