<svg xmlns="http://www.w3.org/2000/svg" xmlns:xlink="http://www.w3.org/1999/xlink" width="500" zoomAndPan="magnify" viewBox="0 0 375 374.999991" height="500" preserveAspectRatio="xMidYMid meet" version="1.0"><path fill="#000000" d="M 375 318.75 C 375 349.75 349.75 375 318.75 375 L 56.25 375 C 25.25 375 0 349.75 0 318.75 L 0 56.25 C 0 25.25 25.25 0 56.25 0 L 318.75 0 C 349.75 0 375 25.25 375 56.25 Z M 375 318.75 " fill-opacity="1" fill-rule="nonzero"/><path fill="#ffffff" d="M 251 139.75 C 220.75 141.25 194.5 150.5 173 171.25 C 151.5 192.25 141.5 217.75 144.25 249.75 C 132.5 248.25 121.75 246.75 110.75 245.75 C 107 245.5 102.5 246 99.5 247.75 C 89 253.75 79 260.5 67 267.75 C 69.25 257.75 70.5 249.25 73.25 240.75 C 75 234.5 74.25 231.25 68.5 227.25 C 32 201.5 16.75 163.25 28.25 123.75 C 38.75 87.25 64.75 65 100.25 53.5 C 148.5 37.75 202.75 53.75 232.25 92.25 C 242.75 106 249.25 121.5 251 139.75 Z M 111.75 127.5 C 112 120.25 105.75 113.75 98.25 113.5 C 90.75 113.25 84.25 119 84.25 126.5 C 84 134 89.75 140.25 97.5 140.5 C 105 140.75 111.5 135 111.75 127.5 Z M 184.5 113.5 C 177 113.75 170.75 120 170.75 127.25 C 171 134.75 177 140.75 184.75 140.5 C 192.5 140.5 198.25 134.5 198.25 126.75 C 198.25 119.5 192 113.5 184.5 113.5 Z M 184.5 113.5 " fill-opacity="1" fill-rule="nonzero"/><path fill="#ffffff" d="M 319 328.5 C 309.5 324.25 300.75 317.75 291.25 316.75 C 282 315.75 272 321.25 262.25 322.25 C 232.5 325.25 206 317 184 296.75 C 142.25 258.25 148.25 199 196.5 167.25 C 239.5 139.25 302.5 148.5 332.75 187.5 C 359.25 221.5 356 266.75 323.75 295.25 C 314.5 303.5 311 310.25 317 321.25 C 318.25 323.5 318.25 326 319 328.5 Z M 210 223 C 216 223 221 218.25 221.25 212.25 C 221.5 205.75 216.25 200.5 210 200.5 C 203.75 200.5 198.5 206 198.5 212.25 C 198.75 218 203.75 223 210 223 Z M 280.25 200.5 C 274.25 200.5 269.25 205.25 269 211.25 C 268.75 217.75 273.75 223 280 223 C 286 223 291 218.5 291.25 212.25 C 291.5 205.75 286.5 200.5 280.25 200.5 Z M 280.25 200.5 " fill-opacity="1" fill-rule="nonzero"/></svg>