<svg xmlns="http://www.w3.org/2000/svg" xmlns:xlink="http://www.w3.org/1999/xlink" width="6803" zoomAndPan="magnify" viewBox="0 0 5101.92 1133.999944" height="1512" preserveAspectRatio="xMidYMid meet" version="1.0"><defs><clipPath id="2b577db864"><path d="M 5.328125 292 L 614 292 L 614 1039 L 5.328125 1039 Z M 5.328125 292 " clip-rule="nonzero"/></clipPath><clipPath id="813aed32c0"><path d="M 613.769531 292.472656 L 586.367188 429.464844 C 528.109375 430.09375 469.851562 430.722656 411.578125 431.351562 L 279.3125 1038.851562 C 216.222656 1038.5 153.132812 1038.148438 90.042969 1037.808594 L 215.070312 428.527344 L 5.332031 428.527344 C 10.375 384.4375 15.40625 340.347656 20.449219 296.257812 L 613.769531 292.472656 " clip-rule="nonzero"/></clipPath><clipPath id="9f2f753b32"><path d="M 682 288.695312 L 891.777344 288.695312 L 891.777344 390.980469 L 682 390.980469 Z M 682 288.695312 " clip-rule="nonzero"/></clipPath><clipPath id="98b4964b2e"><path d="M 877.164062 354.699219 L 891.539062 288.699219 L 704.464844 288.699219 C 697.035156 322.574219 689.601562 356.449219 682.171875 390.332031 Z M 877.164062 354.699219 " clip-rule="nonzero"/></clipPath><clipPath id="2a83b68f83"><path d="M 647 451 L 856.621094 451 L 856.621094 548 L 647 548 Z M 647 451 " clip-rule="nonzero"/></clipPath><clipPath id="ab964e9524"><path d="M 842.949219 511.917969 L 856.148438 451.257812 L 660.984375 486.925781 C 656.546875 507.152344 652.113281 527.378906 647.675781 547.605469 Z M 842.949219 511.917969 " clip-rule="nonzero"/></clipPath><clipPath id="d585dd3c48"><path d="M 540 608.328125 L 1003.652344 608.328125 L 1003.652344 1038 L 540 1038 Z M 540 608.328125 " clip-rule="nonzero"/></clipPath><clipPath id="38838bf169"><path d="M 761.15625 887.691406 L 821.933594 608.488281 L 626.492188 644.207031 C 597.714844 775.40625 568.933594 906.609375 540.15625 1037.808594 L 970.332031 1037.808594 C 981.433594 987.769531 992.542969 937.730469 1003.640625 887.691406 Z M 761.15625 887.691406 " clip-rule="nonzero"/></clipPath><clipPath id="bd12e43af9"><path d="M 1148.476562 351.429688 L 1794 351.429688 L 1794 1061.910156 L 1148.476562 1061.910156 Z M 1148.476562 351.429688 " clip-rule="nonzero"/></clipPath><clipPath id="df62ddd6bf"><path d="M 1338.0625 829.808594 C 1335.367188 841.972656 1334.011719 854.332031 1334.011719 866.921875 C 1334.011719 893.015625 1342.105469 910.554688 1358.300781 919.554688 C 1374.496094 928.550781 1398.105469 933.050781 1429.152344 933.050781 C 1469.636719 933.050781 1503.023438 925.855469 1529.347656 911.460938 C 1555.652344 897.066406 1568.820312 876.605469 1568.820312 850.054688 C 1568.820312 837.464844 1562.976562 826 1551.28125 815.648438 C 1539.582031 805.296875 1512.597656 792.480469 1470.308594 777.179688 C 1362.351562 738.964844 1293.292969 705.675781 1263.160156 677.335938 C 1233.027344 648.996094 1217.960938 615.472656 1217.960938 576.789062 C 1217.960938 530.910156 1232.238281 490.988281 1260.816406 457.019531 C 1289.367188 423.070312 1329.972656 396.976562 1382.601562 378.746094 C 1435.230469 360.542969 1491.6875 351.429688 1551.960938 351.429688 C 1620.328125 351.429688 1677.800781 364.820312 1724.339844 391.582031 C 1770.882812 418.347656 1794.179688 455.109375 1794.179688 501.886719 C 1794.179688 519.882812 1792.601562 538.765625 1789.46875 558.566406 L 1608.644531 558.566406 C 1609.539062 554.535156 1609.996094 548.234375 1609.996094 539.671875 C 1609.996094 519.882812 1602.351562 505.042969 1587.050781 495.136719 C 1571.75 485.230469 1549.03125 480.292969 1518.898438 480.292969 C 1486.964844 480.292969 1460.542969 486.136719 1439.613281 497.832031 C 1418.683594 509.53125 1408.242188 525.269531 1408.242188 545.070312 C 1408.242188 559.027344 1417.242188 570.945312 1435.230469 580.839844 C 1453.21875 590.734375 1487.175781 603.5625 1537.121094 619.289062 C 1622.121094 648.546875 1681.160156 678.445312 1714.234375 709.035156 C 1747.285156 739.625 1763.835938 775.164062 1763.835938 815.636719 C 1763.835938 893.910156 1731.550781 954.535156 1667.011719 997.484375 C 1602.449219 1040.433594 1518.898438 1061.90625 1416.347656 1061.90625 C 1336.730469 1061.90625 1272.191406 1047.726562 1222.707031 1019.40625 C 1173.210938 991.078125 1148.476562 950.355469 1148.476562 897.28125 C 1148.476562 874.355469 1149.828125 851.867188 1152.527344 829.808594 Z M 1338.0625 829.808594 " clip-rule="nonzero"/></clipPath><clipPath id="229a57aadc"><path d="M 1882.058594 170.601562 L 2422 170.601562 L 2422 1062 L 1882.058594 1062 Z M 1882.058594 170.601562 " clip-rule="nonzero"/></clipPath><clipPath id="a778b0c590"><path d="M 2421.160156 370.988281 L 2393.5 501.882812 L 2211.324219 501.882812 C 2160.484375 738.054688 2135.078125 860.628906 2135.078125 869.617188 C 2135.078125 893.90625 2140.578125 910.550781 2151.605469 919.550781 C 2162.628906 928.546875 2182.992188 933.046875 2212.679688 933.046875 C 2235.164062 933.046875 2266.425781 927.652344 2306.453125 916.851562 L 2280.148438 1042.347656 C 2220.3125 1055.378906 2166.777344 1061.902344 2119.5625 1061.902344 C 2057.921875 1061.902344 2011.703125 1050.761719 1980.898438 1028.519531 C 1950.074219 1006.253906 1934.6875 972.625 1934.6875 927.640625 C 1934.6875 908.75 1937.152344 887.390625 1942.097656 863.539062 L 2019.015625 501.882812 L 1882.058594 501.882812 L 1909.714844 370.988281 L 2046.695312 370.988281 L 2068.960938 265.730469 L 2281.503906 170.601562 L 2238.980469 370.988281 Z M 2421.160156 370.988281 " clip-rule="nonzero"/></clipPath><clipPath id="8537a9416e"><path d="M 2437.8125 370.988281 L 3182.714844 370.988281 L 3182.714844 1061 L 2437.8125 1061 Z M 2437.8125 370.988281 " clip-rule="nonzero"/></clipPath><clipPath id="3eab343fed"><path d="M 3182.707031 370.988281 L 3062.605469 934.398438 C 3055.859375 968.582031 3050.25 1004.121094 3045.75 1041.003906 L 2858.175781 1041.003906 C 2858.175781 1018.058594 2860.875 992.191406 2866.269531 963.402344 C 2829.386719 995.792969 2791.601562 1020.082031 2752.917969 1036.269531 C 2714.234375 1052.453125 2674.644531 1060.558594 2634.160156 1060.558594 C 2572.976562 1060.558594 2524.953125 1044.691406 2490.097656 1012.992188 C 2455.234375 981.292969 2437.8125 936.648438 2437.8125 879.070312 C 2437.8125 856.125 2440.0625 834.300781 2444.558594 813.605469 L 2538.359375 370.988281 L 2730.644531 370.988281 L 2643.617188 778.527344 C 2638.222656 804.617188 2635.523438 825.3125 2635.523438 840.601562 C 2635.523438 871.191406 2643.167969 894.03125 2658.46875 909.085938 C 2673.757812 924.164062 2696.917969 931.691406 2727.957031 931.691406 C 2772.035156 931.691406 2810.613281 914.503906 2843.675781 880.074219 C 2876.730469 845.65625 2900.015625 797.195312 2913.515625 734.660156 L 2990.421875 370.988281 Z M 3182.707031 370.988281 " clip-rule="nonzero"/></clipPath><clipPath id="20e9bc0ee3"><path d="M 3208.53125 72.085938 L 4048 72.085938 L 4048 1061.914062 L 3208.53125 1061.914062 Z M 3208.53125 72.085938 " clip-rule="nonzero"/></clipPath><clipPath id="dd640658c1"><path d="M 3516.210938 933.046875 C 3577.390625 933.046875 3629.5625 898.980469 3672.746094 830.828125 C 3715.929688 762.683594 3737.519531 689.464844 3737.519531 611.203125 C 3737.519531 567.582031 3727.507812 534.871094 3707.496094 513.042969 C 3687.472656 491.21875 3657.445312 480.308594 3617.417969 480.308594 C 3554.445312 480.308594 3503.382812 513.949219 3464.242188 581.1875 C 3425.113281 648.445312 3405.546875 721.195312 3405.546875 799.46875 C 3405.546875 844.003906 3414.757812 877.398438 3433.203125 899.664062 C 3451.648438 921.9375 3479.320312 933.066406 3516.199219 933.066406 M 4047.230469 72.089844 L 3841.4375 1041.003906 L 3661.285156 1041.003906 L 3671.390625 958.007812 C 3638.550781 992.660156 3603.25 1018.632812 3565.472656 1035.9375 C 3527.695312 1053.242188 3487.421875 1061.914062 3444.6875 1061.914062 C 3376.769531 1061.914062 3320.417969 1037.625 3275.667969 989.046875 C 3230.90625 940.457031 3208.535156 880.417969 3208.535156 808.894531 C 3208.535156 685.199219 3244.40625 578.019531 3316.164062 487.390625 C 3387.898438 396.757812 3480.011719 351.421875 3592.46875 351.421875 C 3628.453125 351.421875 3663.757812 359.972656 3698.390625 377.066406 C 3733.019531 394.15625 3758.449219 415.535156 3774.648438 441.15625 L 3854.925781 72.089844 Z M 4047.230469 72.089844 " clip-rule="nonzero"/></clipPath><clipPath id="55b74645b0"><path d="M 4003.378906 72.085938 L 4401 72.085938 L 4401 1041.671875 L 4003.378906 1041.671875 Z M 4003.378906 72.085938 " clip-rule="nonzero"/></clipPath><clipPath id="299a3a58ec"><path d="M 4400.914062 72.089844 L 4366.507812 236.726562 L 4174.890625 236.726562 L 4209.300781 72.089844 Z M 4337.492188 370.988281 L 4195.128906 1041.003906 L 4003.515625 1041.003906 L 4145.867188 370.988281 Z M 4337.492188 370.988281 " clip-rule="nonzero"/></clipPath><clipPath id="a9a1f2bcd5"><path d="M 4371 351.242188 L 5097 351.242188 L 5097 1061.914062 L 4371 1061.914062 Z M 4371 351.242188 " clip-rule="nonzero"/></clipPath><clipPath id="bdb8ceb1ca"><path d="M 4686.347656 933.046875 C 4751.121094 933.046875 4802.949219 900.207031 4841.867188 834.535156 C 4880.765625 768.867188 4900.222656 697.578125 4900.222656 620.636719 C 4900.222656 571.152344 4890.542969 535.402344 4871.199219 513.363281 C 4851.859375 491.324219 4821.949219 480.289062 4781.464844 480.289062 C 4716.242188 480.289062 4664.179688 513.128906 4625.261719 578.800781 C 4586.34375 644.46875 4566.894531 716.441406 4566.894531 794.710938 C 4566.894531 841.0625 4576.789062 875.695312 4596.578125 898.640625 C 4616.367188 921.585938 4646.277344 933.046875 4686.324219 933.046875 M 4790.902344 351.433594 C 4885.359375 351.433594 4959.921875 375.390625 5014.578125 423.289062 C 5069.222656 471.203125 5096.5625 537.429688 5096.5625 621.992188 C 5096.5625 749.3125 5057.429688 854.453125 4979.15625 937.429688 C 4900.882812 1020.425781 4799.902344 1061.914062 4676.195312 1061.914062 C 4581.738281 1061.914062 4507.28125 1037.859375 4452.851562 989.726562 C 4398.417969 941.597656 4371.21875 874.789062 4371.21875 789.328125 C 4371.21875 662.945312 4410.351562 558.347656 4488.621094 475.585938 C 4566.894531 392.824219 4667.65625 351.433594 4790.902344 351.433594 " clip-rule="nonzero"/></clipPath><clipPath id="0b566b2f8d"><path d="M 4566 701 L 4820.601562 701 L 4820.601562 951 L 4566 951 Z M 4566 701 " clip-rule="nonzero"/></clipPath><clipPath id="3332e8483f"><path d="M 4566.660156 950.449219 L 4572.226562 940.988281 C 4578.125 930.976562 4584.488281 921.199219 4589.820312 910.902344 C 4597.644531 895.804688 4602.007812 879.542969 4603.777344 862.601562 C 4605.078125 850.222656 4604.714844 837.917969 4603.0625 825.589844 C 4602.050781 818.085938 4601.21875 810.535156 4603.234375 803.007812 C 4604.917969 796.695312 4608.480469 791.417969 4612.382812 786.351562 C 4626.15625 768.503906 4637.40625 749.066406 4648.558594 729.554688 L 4663.410156 704.296875 C 4665.703125 700.4375 4669.136719 700.148438 4672.230469 703.484375 C 4677.15625 708.796875 4680.757812 714.988281 4684.394531 721.207031 C 4688.246094 727.796875 4691.910156 734.554688 4696.402344 740.6875 C 4703.738281 750.730469 4714.28125 756.519531 4725.9375 759.996094 C 4737.046875 763.300781 4748.390625 765.847656 4759.640625 768.6875 C 4764.40625 769.890625 4769.160156 769.058594 4773.90625 768.460938 L 4803.546875 764.582031 C 4809.039062 763.855469 4814.347656 762.46875 4819.414062 760.210938 L 4820.09375 759.941406 C 4817.996094 765.796875 4815.328125 771.542969 4812.460938 777.183594 C 4809.113281 783.761719 4807.632812 790.917969 4805.796875 797.976562 C 4803.175781 808.105469 4803.621094 818.246094 4805.828125 828.382812 C 4808.539062 840.859375 4807.171875 853.152344 4803.578125 865.203125 C 4800.007812 877.144531 4795.808594 888.882812 4792.140625 900.804688 C 4787.640625 915.433594 4786.09375 930.445312 4786.902344 945.714844 L 4786.914062 950.457031 Z M 4566.660156 950.449219 " clip-rule="nonzero"/></clipPath></defs><g clip-path="url(#2b577db864)"><g clip-path="url(#813aed32c0)"><path fill="#ffffff" d="M 0 283.367188 L 1008.976562 283.367188 L 1008.976562 1044.097656 L 0 1044.097656 Z M 0 283.367188 " fill-opacity="1" fill-rule="nonzero"/></g></g><g clip-path="url(#9f2f753b32)"><g clip-path="url(#98b4964b2e)"><path fill="#ffffff" d="M 0 283.367188 L 1008.976562 283.367188 L 1008.976562 1044.097656 L 0 1044.097656 Z M 0 283.367188 " fill-opacity="1" fill-rule="nonzero"/></g></g><g clip-path="url(#2a83b68f83)"><g clip-path="url(#ab964e9524)"><path fill="#ffffff" d="M 0 283.367188 L 1008.976562 283.367188 L 1008.976562 1044.097656 L 0 1044.097656 Z M 0 283.367188 " fill-opacity="1" fill-rule="nonzero"/></g></g><g clip-path="url(#d585dd3c48)"><g clip-path="url(#38838bf169)"><path fill="#ffffff" d="M 0 283.367188 L 1008.976562 283.367188 L 1008.976562 1044.097656 L 0 1044.097656 Z M 0 283.367188 " fill-opacity="1" fill-rule="nonzero"/></g></g><g clip-path="url(#bd12e43af9)"><g clip-path="url(#df62ddd6bf)"><path fill="#ffffff" d="M 1148.476562 351.429688 L 1793.980469 351.429688 L 1793.980469 1061.910156 L 1148.476562 1061.910156 Z M 1148.476562 351.429688 " fill-opacity="1" fill-rule="nonzero"/></g></g><g clip-path="url(#229a57aadc)"><g clip-path="url(#a778b0c590)"><path fill="#ffffff" d="M 1882.058594 170.601562 L 2421.160156 170.601562 L 2421.160156 1062.355469 L 1882.058594 1062.355469 Z M 1882.058594 170.601562 " fill-opacity="1" fill-rule="nonzero"/></g></g><g clip-path="url(#8537a9416e)"><g clip-path="url(#3eab343fed)"><path fill="#ffffff" d="M 2437.8125 370.988281 L 3182.714844 370.988281 L 3182.714844 1060.476562 L 2437.8125 1060.476562 Z M 2437.8125 370.988281 " fill-opacity="1" fill-rule="nonzero"/></g></g><g clip-path="url(#20e9bc0ee3)"><g clip-path="url(#dd640658c1)"><path fill="#ffffff" d="M 3203.207031 66.757812 L 5101.886719 66.757812 L 5101.886719 1067.242188 L 3203.207031 1067.242188 Z M 3203.207031 66.757812 " fill-opacity="1" fill-rule="nonzero"/></g></g><g clip-path="url(#55b74645b0)"><g clip-path="url(#299a3a58ec)"><path fill="#ffffff" d="M 3203.207031 66.757812 L 5101.886719 66.757812 L 5101.886719 1067.242188 L 3203.207031 1067.242188 Z M 3203.207031 66.757812 " fill-opacity="1" fill-rule="nonzero"/></g></g><g clip-path="url(#a9a1f2bcd5)"><g clip-path="url(#bdb8ceb1ca)"><path fill="#ffffff" d="M 3203.207031 66.757812 L 5101.886719 66.757812 L 5101.886719 1067.242188 L 3203.207031 1067.242188 Z M 3203.207031 66.757812 " fill-opacity="1" fill-rule="nonzero"/></g></g><g clip-path="url(#0b566b2f8d)"><g clip-path="url(#3332e8483f)"><path fill="#ffffff" d="M 3203.207031 66.757812 L 5101.886719 66.757812 L 5101.886719 1067.242188 L 3203.207031 1067.242188 Z M 3203.207031 66.757812 " fill-opacity="1" fill-rule="nonzero"/></g></g></svg>