<svg xmlns="http://www.w3.org/2000/svg" xmlns:xlink="http://www.w3.org/1999/xlink" width="500" zoomAndPan="magnify" viewBox="0 0 375 374.999991" height="500" preserveAspectRatio="xMidYMid meet" version="1.0"><path fill="#000000" d="M 62.347656 -0.0429688 L 312.644531 -0.0429688 C 314.683594 -0.0429688 316.722656 0.0546875 318.753906 0.257812 C 320.785156 0.457031 322.800781 0.753906 324.804688 1.152344 C 326.808594 1.550781 328.785156 2.046875 330.738281 2.640625 C 332.691406 3.234375 334.613281 3.921875 336.5 4.703125 C 338.386719 5.484375 340.230469 6.355469 342.03125 7.316406 C 343.832031 8.28125 345.578125 9.328125 347.277344 10.460938 C 348.972656 11.597656 350.613281 12.8125 352.191406 14.105469 C 353.769531 15.402344 355.28125 16.769531 356.722656 18.214844 C 358.167969 19.660156 359.535156 21.167969 360.832031 22.746094 C 362.128906 24.324219 363.34375 25.964844 364.476562 27.660156 C 365.609375 29.359375 366.660156 31.109375 367.621094 32.910156 C 368.582031 34.710938 369.457031 36.554688 370.238281 38.4375 C 371.019531 40.324219 371.707031 42.246094 372.296875 44.199219 C 372.890625 46.152344 373.386719 48.132812 373.785156 50.132812 C 374.183594 52.136719 374.480469 54.152344 374.683594 56.183594 C 374.882812 58.21875 374.984375 60.253906 374.984375 62.296875 L 374.984375 312.589844 C 374.984375 314.632812 374.882812 316.667969 374.683594 318.699219 C 374.480469 320.734375 374.183594 322.75 373.785156 324.753906 C 373.386719 326.753906 372.890625 328.734375 372.296875 330.6875 C 371.707031 332.640625 371.019531 334.558594 370.238281 336.445312 C 369.457031 338.332031 368.582031 340.175781 367.621094 341.976562 C 366.660156 343.777344 365.609375 345.527344 364.476562 347.222656 C 363.34375 348.921875 362.128906 350.558594 360.832031 352.136719 C 359.535156 353.714844 358.167969 355.226562 356.722656 356.671875 C 355.28125 358.113281 353.769531 359.484375 352.191406 360.78125 C 350.613281 362.074219 348.972656 363.289062 347.277344 364.421875 C 345.578125 365.558594 343.832031 366.605469 342.03125 367.570312 C 340.230469 368.53125 338.386719 369.402344 336.5 370.183594 C 334.613281 370.964844 332.691406 371.652344 330.738281 372.246094 C 328.785156 372.839844 326.808594 373.332031 324.804688 373.730469 C 322.800781 374.128906 320.785156 374.429688 318.753906 374.628906 C 316.722656 374.828125 314.683594 374.929688 312.644531 374.929688 L 62.347656 374.929688 C 60.304688 374.929688 58.269531 374.828125 56.238281 374.628906 C 54.207031 374.429688 52.1875 374.128906 50.1875 373.730469 C 48.183594 373.332031 46.207031 372.839844 44.253906 372.246094 C 42.296875 371.652344 40.378906 370.964844 38.492188 370.183594 C 36.605469 369.402344 34.761719 368.53125 32.960938 367.570312 C 31.160156 366.605469 29.410156 365.558594 27.714844 364.421875 C 26.015625 363.289062 24.378906 362.074219 22.800781 360.78125 C 21.222656 359.484375 19.710938 358.113281 18.265625 356.671875 C 16.824219 355.226562 15.453125 353.714844 14.160156 352.136719 C 12.863281 350.558594 11.648438 348.921875 10.515625 347.222656 C 9.378906 345.527344 8.332031 343.777344 7.371094 341.976562 C 6.40625 340.175781 5.535156 338.332031 4.753906 336.445312 C 3.972656 334.558594 3.285156 332.640625 2.691406 330.6875 C 2.101562 328.734375 1.605469 326.753906 1.207031 324.753906 C 0.808594 322.75 0.507812 320.734375 0.308594 318.699219 C 0.109375 316.667969 0.0078125 314.632812 0.0078125 312.589844 L 0.0078125 62.296875 C 0.0078125 60.253906 0.109375 58.21875 0.308594 56.183594 C 0.507812 54.152344 0.808594 52.136719 1.207031 50.132812 C 1.605469 48.132812 2.101562 46.152344 2.691406 44.199219 C 3.285156 42.246094 3.972656 40.324219 4.753906 38.4375 C 5.535156 36.554688 6.40625 34.710938 7.371094 32.910156 C 8.332031 31.109375 9.378906 29.359375 10.515625 27.660156 C 11.648438 25.964844 12.863281 24.324219 14.160156 22.746094 C 15.453125 21.167969 16.824219 19.660156 18.265625 18.214844 C 19.710938 16.769531 21.222656 15.402344 22.800781 14.105469 C 24.378906 12.8125 26.015625 11.597656 27.714844 10.460938 C 29.410156 9.328125 31.160156 8.28125 32.960938 7.316406 C 34.761719 6.355469 36.605469 5.484375 38.492188 4.703125 C 40.378906 3.921875 42.296875 3.234375 44.253906 2.640625 C 46.207031 2.046875 48.183594 1.550781 50.1875 1.152344 C 52.1875 0.753906 54.207031 0.457031 56.238281 0.257812 C 58.269531 0.0546875 60.304688 -0.0429688 62.347656 -0.0429688 Z M 62.347656 -0.0429688 " fill-opacity="1" fill-rule="nonzero"/><path fill="#ffffff" d="M 304.371094 156.765625 L 304.371094 106.761719 C 239.011719 104 236.90625 44.605469 236.90625 39.023438 L 236.90625 38.605469 L 186.386719 38.605469 L 186.386719 233.351562 C 186.386719 234.742188 186.3125 236.128906 186.167969 237.515625 C 186.019531 238.898438 185.804688 240.273438 185.515625 241.636719 C 185.226562 242.996094 184.867188 244.339844 184.4375 245.664062 C 184.007812 246.988281 183.507812 248.289062 182.945312 249.5625 C 182.378906 250.832031 181.75 252.074219 181.054688 253.28125 C 180.359375 254.488281 179.605469 255.652344 178.789062 256.78125 C 177.972656 257.910156 177.097656 258.992188 176.167969 260.027344 C 175.238281 261.066406 174.257812 262.050781 173.226562 262.984375 C 172.195312 263.917969 171.117188 264.796875 169.992188 265.621094 C 168.867188 266.441406 167.703125 267.203125 166.5 267.902344 C 165.296875 268.601562 164.058594 269.238281 162.789062 269.808594 C 161.519531 270.378906 160.222656 270.882812 158.902344 271.320312 C 157.578125 271.753906 156.238281 272.121094 154.878906 272.417969 C 153.515625 272.710938 152.144531 272.9375 150.761719 273.089844 C 149.375 273.242188 147.988281 273.320312 146.597656 273.328125 C 145.203125 273.335938 143.816406 273.269531 142.429688 273.132812 C 141.042969 272.996094 139.667969 272.785156 138.304688 272.503906 C 136.941406 272.226562 135.597656 271.875 134.269531 271.453125 C 132.941406 271.03125 131.640625 270.539062 130.363281 269.984375 C 129.089844 269.425781 127.84375 268.804688 126.632812 268.117188 C 125.421875 267.429688 124.25 266.679688 123.117188 265.871094 C 121.984375 265.0625 120.898438 264.195312 119.855469 263.269531 C 118.8125 262.347656 117.820312 261.375 116.882812 260.347656 C 115.941406 259.320312 115.058594 258.246094 114.226562 257.128906 C 113.398438 256.007812 112.632812 254.847656 111.925781 253.648438 C 111.21875 252.449219 110.574219 251.21875 109.996094 249.953125 C 109.417969 248.683594 108.90625 247.390625 108.460938 246.074219 C 108.019531 244.753906 107.644531 243.414062 107.339844 242.054688 C 107.035156 240.695312 106.804688 239.324219 106.644531 237.941406 C 106.480469 236.558594 106.394531 235.171875 106.378906 233.777344 C 106.363281 232.386719 106.417969 230.996094 106.546875 229.609375 C 106.675781 228.222656 106.878906 226.847656 107.152344 225.484375 C 107.425781 224.117188 107.765625 222.769531 108.179688 221.441406 C 108.59375 220.109375 109.078125 218.808594 109.625 217.527344 C 110.175781 216.25 110.789062 215 111.472656 213.785156 C 112.152344 212.570312 112.890625 211.394531 113.695312 210.257812 C 114.496094 209.121094 115.359375 208.027344 116.273438 206.980469 C 117.191406 205.929688 118.160156 204.933594 119.183594 203.988281 C 120.203125 203.039062 121.269531 202.148438 122.382812 201.3125 C 123.5 200.480469 124.652344 199.703125 125.847656 198.988281 C 127.042969 198.273438 128.273438 197.625 129.535156 197.039062 C 130.796875 196.453125 132.085938 195.933594 133.40625 195.480469 C 134.722656 195.027344 136.058594 194.648438 137.414062 194.335938 C 138.773438 194.023438 140.140625 193.78125 141.523438 193.613281 C 142.90625 193.445312 144.292969 193.347656 145.6875 193.324219 C 147.078125 193.300781 148.46875 193.347656 149.855469 193.46875 C 151.242188 193.589844 152.617188 193.78125 153.984375 194.046875 C 155.351562 194.3125 156.703125 194.648438 158.035156 195.050781 L 158.035156 143.480469 C 154.160156 142.984375 150.269531 142.734375 146.363281 142.738281 C 144.882812 142.738281 143.398438 142.773438 141.917969 142.84375 C 140.4375 142.917969 138.957031 143.027344 137.480469 143.171875 C 136.007812 143.316406 134.535156 143.5 133.066406 143.71875 C 131.601562 143.933594 130.140625 144.1875 128.6875 144.476562 C 127.230469 144.765625 125.785156 145.089844 124.347656 145.453125 C 122.90625 145.8125 121.480469 146.207031 120.058594 146.636719 C 118.640625 147.070312 117.234375 147.535156 115.835938 148.035156 C 114.441406 148.53125 113.058594 149.066406 111.6875 149.632812 C 110.316406 150.203125 108.960938 150.800781 107.621094 151.4375 C 106.28125 152.070312 104.957031 152.738281 103.648438 153.4375 C 102.339844 154.136719 101.050781 154.867188 99.78125 155.628906 C 98.507812 156.390625 97.253906 157.183594 96.023438 158.007812 C 94.789062 158.832031 93.578125 159.683594 92.386719 160.570312 C 91.195312 161.453125 90.027344 162.363281 88.878906 163.304688 C 87.734375 164.246094 86.609375 165.214844 85.511719 166.210938 C 84.414062 167.207031 83.339844 168.226562 82.289062 169.277344 C 81.242188 170.324219 80.21875 171.398438 79.222656 172.496094 C 78.226562 173.597656 77.257812 174.71875 76.320312 175.867188 C 75.378906 177.011719 74.464844 178.179688 73.582031 179.371094 C 72.699219 180.5625 71.84375 181.773438 71.023438 183.007812 C 70.199219 184.242188 69.40625 185.492188 68.640625 186.765625 C 67.878906 188.039062 67.148438 189.328125 66.449219 190.636719 C 65.75 191.941406 65.085938 193.265625 64.449219 194.609375 C 63.816406 195.949219 63.214844 197.304688 62.648438 198.671875 C 62.082031 200.042969 61.546875 201.425781 61.046875 202.824219 C 60.546875 204.21875 60.082031 205.628906 59.652344 207.046875 C 59.222656 208.464844 58.828125 209.894531 58.464844 211.332031 C 58.105469 212.769531 57.78125 214.21875 57.492188 215.671875 C 57.203125 217.125 56.949219 218.585938 56.730469 220.054688 C 56.515625 221.519531 56.332031 222.992188 56.1875 224.46875 C 56.042969 225.945312 55.933594 227.421875 55.859375 228.902344 C 55.785156 230.386719 55.75 231.867188 55.75 233.351562 C 55.75 234.832031 55.785156 236.316406 55.859375 237.796875 C 55.933594 239.277344 56.042969 240.753906 56.1875 242.230469 C 56.332031 243.707031 56.515625 245.179688 56.730469 246.644531 C 56.949219 248.113281 57.203125 249.574219 57.492188 251.027344 C 57.78125 252.480469 58.105469 253.929688 58.464844 255.367188 C 58.828125 256.804688 59.222656 258.234375 59.652344 259.652344 C 60.082031 261.074219 60.546875 262.480469 61.046875 263.875 C 61.546875 265.273438 62.082031 266.65625 62.648438 268.027344 C 63.214844 269.394531 63.816406 270.75 64.449219 272.09375 C 65.085938 273.433594 65.75 274.757812 66.449219 276.066406 C 67.148438 277.371094 67.878906 278.664062 68.640625 279.933594 C 69.40625 281.207031 70.199219 282.457031 71.023438 283.691406 C 71.84375 284.925781 72.699219 286.136719 73.582031 287.328125 C 74.464844 288.519531 75.378906 289.6875 76.320312 290.835938 C 77.257812 291.980469 78.226562 293.101562 79.222656 294.203125 C 80.21875 295.300781 81.242188 296.375 82.289062 297.421875 C 83.339844 298.472656 84.414062 299.492188 85.511719 300.488281 C 86.609375 301.484375 87.734375 302.453125 88.878906 303.394531 C 90.027344 304.335938 91.195312 305.246094 92.386719 306.132812 C 93.578125 307.015625 94.789062 307.867188 96.023438 308.691406 C 97.253906 309.515625 98.507812 310.308594 99.78125 311.070312 C 101.050781 311.832031 102.339844 312.566406 103.648438 313.261719 C 104.957031 313.960938 106.28125 314.628906 107.621094 315.261719 C 108.960938 315.898438 110.316406 316.5 111.6875 317.066406 C 113.058594 317.632812 114.441406 318.167969 115.835938 318.667969 C 117.234375 319.164062 118.640625 319.632812 120.058594 320.0625 C 121.480469 320.492188 122.90625 320.886719 124.347656 321.246094 C 125.785156 321.609375 127.230469 321.933594 128.6875 322.222656 C 130.140625 322.511719 131.601562 322.765625 133.066406 322.980469 C 134.535156 323.199219 136.007812 323.382812 137.480469 323.527344 C 138.957031 323.671875 140.4375 323.78125 141.917969 323.855469 C 143.398438 323.925781 144.882812 323.964844 146.363281 323.964844 C 147.847656 323.964844 149.328125 323.925781 150.808594 323.855469 C 152.292969 323.78125 153.769531 323.671875 155.246094 323.527344 C 156.722656 323.382812 158.191406 323.199219 159.660156 322.980469 C 161.125 322.765625 162.585938 322.511719 164.042969 322.222656 C 165.496094 321.933594 166.941406 321.609375 168.382812 321.246094 C 169.820312 320.886719 171.25 320.492188 172.667969 320.0625 C 174.085938 319.632812 175.496094 319.164062 176.890625 318.667969 C 178.285156 318.167969 179.671875 317.632812 181.039062 317.066406 C 182.410156 316.5 183.765625 315.898438 185.105469 315.261719 C 186.445312 314.628906 187.769531 313.960938 189.078125 313.261719 C 190.386719 312.566406 191.675781 311.832031 192.949219 311.070312 C 194.21875 310.308594 195.472656 309.515625 196.707031 308.691406 C 197.9375 307.867188 199.152344 307.015625 200.34375 306.132812 C 201.535156 305.246094 202.703125 304.335938 203.847656 303.394531 C 204.996094 302.453125 206.117188 301.484375 207.214844 300.488281 C 208.316406 299.492188 209.386719 298.472656 210.4375 297.421875 C 211.484375 296.375 212.507812 295.300781 213.503906 294.203125 C 214.5 293.101562 215.46875 291.980469 216.410156 290.835938 C 217.351562 289.6875 218.261719 288.519531 219.144531 287.328125 C 220.027344 286.136719 220.882812 284.925781 221.707031 283.691406 C 222.53125 282.457031 223.324219 281.207031 224.085938 279.933594 C 224.847656 278.664062 225.578125 277.371094 226.277344 276.066406 C 226.976562 274.757812 227.644531 273.433594 228.277344 272.09375 C 228.910156 270.75 229.511719 269.394531 230.078125 268.027344 C 230.648438 266.65625 231.179688 265.273438 231.679688 263.875 C 232.179688 262.480469 232.644531 261.074219 233.074219 259.652344 C 233.507812 258.234375 233.902344 256.804688 234.261719 255.367188 C 234.621094 253.929688 234.945312 252.480469 235.234375 251.027344 C 235.527344 249.574219 235.777344 248.113281 235.996094 246.644531 C 236.214844 245.179688 236.394531 243.707031 236.539062 242.230469 C 236.6875 240.753906 236.796875 239.277344 236.867188 237.796875 C 236.941406 236.316406 236.976562 234.832031 236.976562 233.351562 C 236.976562 232.078125 236.976562 230.816406 236.890625 229.566406 L 236.890625 133.667969 C 260.152344 154.949219 304.371094 156.765625 304.371094 156.765625 Z M 304.371094 156.765625 " fill-opacity="1" fill-rule="nonzero"/><path fill="#ffffff" d="M 319.25 169.101562 L 319.25 119.070312 C 253.878906 116.3125 251.785156 56.914062 251.785156 51.335938 L 251.785156 50.914062 L 201.265625 50.914062 L 201.265625 245.660156 C 201.265625 247.050781 201.191406 248.441406 201.046875 249.824219 C 200.898438 251.210938 200.683594 252.585938 200.394531 253.945312 C 200.105469 255.308594 199.746094 256.652344 199.316406 257.976562 C 198.886719 259.300781 198.390625 260.601562 197.824219 261.871094 C 197.257812 263.144531 196.628906 264.386719 195.9375 265.59375 C 195.242188 266.800781 194.484375 267.964844 193.667969 269.09375 C 192.851562 270.222656 191.980469 271.304688 191.050781 272.34375 C 190.121094 273.378906 189.140625 274.363281 188.109375 275.300781 C 187.078125 276.234375 186 277.113281 184.875 277.933594 C 183.75 278.757812 182.585938 279.515625 181.382812 280.21875 C 180.179688 280.917969 178.945312 281.554688 177.675781 282.125 C 176.402344 282.695312 175.109375 283.199219 173.785156 283.636719 C 172.464844 284.074219 171.121094 284.4375 169.761719 284.734375 C 168.398438 285.03125 167.027344 285.253906 165.644531 285.40625 C 164.261719 285.558594 162.871094 285.640625 161.480469 285.648438 C 160.085938 285.65625 158.699219 285.589844 157.3125 285.453125 C 155.925781 285.316406 154.550781 285.105469 153.1875 284.824219 C 151.824219 284.542969 150.480469 284.195312 149.152344 283.773438 C 147.824219 283.351562 146.523438 282.863281 145.246094 282.304688 C 143.96875 281.746094 142.726562 281.125 141.515625 280.4375 C 140.304688 279.75 139.132812 279 138 278.191406 C 136.867188 277.382812 135.78125 276.515625 134.738281 275.59375 C 133.695312 274.671875 132.703125 273.695312 131.761719 272.667969 C 130.820312 271.640625 129.9375 270.570312 129.109375 269.449219 C 128.28125 268.332031 127.511719 267.171875 126.804688 265.972656 C 126.097656 264.773438 125.453125 263.539062 124.875 262.273438 C 124.296875 261.007812 123.785156 259.714844 123.339844 258.394531 C 122.894531 257.074219 122.523438 255.734375 122.21875 254.378906 C 121.914062 253.019531 121.679688 251.648438 121.519531 250.265625 C 121.359375 248.882812 121.273438 247.492188 121.253906 246.101562 C 121.238281 244.707031 121.296875 243.320312 121.425781 241.933594 C 121.554688 240.546875 121.753906 239.171875 122.027344 237.804688 C 122.300781 236.4375 122.644531 235.089844 123.058594 233.761719 C 123.472656 232.433594 123.953125 231.128906 124.503906 229.847656 C 125.050781 228.570312 125.667969 227.320312 126.347656 226.105469 C 127.027344 224.890625 127.769531 223.714844 128.570312 222.578125 C 129.375 221.441406 130.234375 220.347656 131.152344 219.300781 C 132.066406 218.25 133.035156 217.253906 134.058594 216.308594 C 135.078125 215.359375 136.144531 214.46875 137.261719 213.632812 C 138.375 212.796875 139.527344 212.023438 140.722656 211.308594 C 141.917969 210.59375 143.148438 209.945312 144.410156 209.355469 C 145.675781 208.769531 146.964844 208.25 148.28125 207.800781 C 149.597656 207.347656 150.933594 206.964844 152.292969 206.65625 C 153.648438 206.34375 155.019531 206.101562 156.402344 205.933594 C 157.78125 205.761719 159.171875 205.667969 160.5625 205.644531 C 161.953125 205.617188 163.34375 205.667969 164.730469 205.789062 C 166.117188 205.910156 167.496094 206.101562 168.863281 206.367188 C 170.230469 206.628906 171.578125 206.964844 172.910156 207.371094 L 172.910156 155.792969 C 169.027344 155.304688 165.128906 155.070312 161.214844 155.082031 C 159.730469 155.082031 158.25 155.117188 156.769531 155.191406 C 155.289062 155.265625 153.808594 155.375 152.332031 155.519531 C 150.855469 155.667969 149.386719 155.847656 147.917969 156.066406 C 146.453125 156.285156 144.992188 156.539062 143.539062 156.828125 C 142.082031 157.117188 140.636719 157.441406 139.199219 157.804688 C 137.757812 158.164062 136.332031 158.558594 134.910156 158.992188 C 133.492188 159.421875 132.085938 159.886719 130.6875 160.386719 C 129.292969 160.886719 127.910156 161.421875 126.539062 161.988281 C 125.171875 162.558594 123.816406 163.160156 122.472656 163.792969 C 121.132812 164.425781 119.808594 165.09375 118.503906 165.792969 C 117.195312 166.492188 115.90625 167.226562 114.632812 167.988281 C 113.363281 168.75 112.109375 169.542969 110.875 170.367188 C 109.644531 171.191406 108.433594 172.046875 107.242188 172.929688 C 106.050781 173.8125 104.882812 174.726562 103.734375 175.667969 C 102.589844 176.609375 101.46875 177.578125 100.367188 178.574219 C 99.269531 179.570312 98.195312 180.59375 97.148438 181.640625 C 96.101562 182.691406 95.078125 183.765625 94.082031 184.863281 C 93.085938 185.960938 92.117188 187.085938 91.179688 188.230469 C 90.238281 189.378906 89.328125 190.546875 88.441406 191.738281 C 87.558594 192.929688 86.707031 194.144531 85.882812 195.375 C 85.058594 196.609375 84.265625 197.863281 83.503906 199.132812 C 82.742188 200.40625 82.011719 201.695312 81.3125 203.003906 C 80.617188 204.3125 79.949219 205.636719 79.316406 206.980469 C 78.683594 208.320312 78.082031 209.675781 77.515625 211.046875 C 76.949219 212.414062 76.414062 213.796875 75.914062 215.195312 C 75.417969 216.589844 74.953125 218 74.519531 219.417969 C 74.089844 220.839844 73.695312 222.265625 73.335938 223.707031 C 72.976562 225.144531 72.652344 226.589844 72.363281 228.046875 C 72.074219 229.5 71.820312 230.960938 71.605469 232.429688 C 71.386719 233.894531 71.207031 235.367188 71.0625 236.84375 C 70.917969 238.316406 70.808594 239.796875 70.734375 241.277344 C 70.664062 242.757812 70.628906 244.242188 70.628906 245.722656 C 70.628906 247.207031 70.664062 248.6875 70.738281 250.171875 C 70.8125 251.652344 70.921875 253.128906 71.066406 254.605469 C 71.214844 256.082031 71.394531 257.554688 71.613281 259.019531 C 71.832031 260.488281 72.085938 261.949219 72.375 263.402344 C 72.664062 264.855469 72.988281 266.300781 73.351562 267.742188 C 73.710938 269.179688 74.105469 270.609375 74.539062 272.027344 C 74.96875 273.445312 75.433594 274.855469 75.933594 276.25 C 76.433594 277.644531 76.96875 279.027344 77.535156 280.398438 C 78.105469 281.769531 78.707031 283.125 79.339844 284.464844 C 79.976562 285.804688 80.640625 287.128906 81.339844 288.4375 C 82.042969 289.742188 82.773438 291.035156 83.535156 292.304688 C 84.296875 293.578125 85.089844 294.828125 85.914062 296.0625 C 86.738281 297.296875 87.59375 298.507812 88.476562 299.699219 C 89.363281 300.886719 90.273438 302.058594 91.214844 303.203125 C 92.15625 304.347656 93.125 305.472656 94.121094 306.570312 C 95.117188 307.667969 96.140625 308.742188 97.191406 309.789062 C 98.238281 310.839844 99.3125 311.859375 100.410156 312.855469 C 101.511719 313.851562 102.632812 314.820312 103.78125 315.757812 C 104.925781 316.699219 106.097656 317.613281 107.289062 318.496094 C 108.480469 319.378906 109.691406 320.230469 110.925781 321.054688 C 112.160156 321.878906 113.410156 322.671875 114.683594 323.433594 C 115.957031 324.195312 117.246094 324.925781 118.554688 325.625 C 119.863281 326.320312 121.1875 326.988281 122.527344 327.621094 C 123.867188 328.253906 125.222656 328.855469 126.59375 329.421875 C 127.964844 329.988281 129.347656 330.523438 130.746094 331.023438 C 132.140625 331.519531 133.546875 331.984375 134.96875 332.414062 C 136.386719 332.84375 137.816406 333.242188 139.253906 333.601562 C 140.695312 333.960938 142.140625 334.285156 143.59375 334.574219 C 145.050781 334.863281 146.511719 335.113281 147.976562 335.332031 C 149.445312 335.550781 150.914062 335.730469 152.390625 335.875 C 153.867188 336.019531 155.347656 336.128906 156.828125 336.199219 C 158.308594 336.273438 159.789062 336.308594 161.273438 336.308594 C 162.757812 336.308594 164.238281 336.269531 165.71875 336.199219 C 167.199219 336.125 168.679688 336.015625 170.15625 335.867188 C 171.632812 335.722656 173.101562 335.539062 174.570312 335.324219 C 176.035156 335.105469 177.496094 334.851562 178.949219 334.5625 C 180.40625 334.269531 181.851562 333.945312 183.289062 333.585938 C 184.726562 333.222656 186.15625 332.828125 187.574219 332.398438 C 188.996094 331.964844 190.402344 331.5 191.796875 331 C 193.195312 330.5 194.578125 329.964844 195.949219 329.398438 C 197.316406 328.832031 198.671875 328.230469 200.011719 327.59375 C 201.355469 326.960938 202.675781 326.292969 203.984375 325.59375 C 205.292969 324.894531 206.582031 324.164062 207.855469 323.398438 C 209.125 322.636719 210.378906 321.84375 211.609375 321.019531 C 212.84375 320.195312 214.054688 319.339844 215.246094 318.457031 C 216.4375 317.574219 217.605469 316.660156 218.75 315.71875 C 219.898438 314.777344 221.019531 313.808594 222.117188 312.8125 C 223.214844 311.816406 224.289062 310.792969 225.339844 309.746094 C 226.386719 308.695312 227.410156 307.621094 228.402344 306.523438 C 229.398438 305.421875 230.367188 304.300781 231.308594 303.152344 C 232.25 302.007812 233.160156 300.835938 234.042969 299.644531 C 234.925781 298.453125 235.777344 297.242188 236.601562 296.007812 C 237.425781 294.777344 238.21875 293.523438 238.980469 292.25 C 239.742188 290.976562 240.472656 289.6875 241.171875 288.378906 C 241.871094 287.070312 242.535156 285.746094 243.167969 284.40625 C 243.804688 283.066406 244.402344 281.710938 244.96875 280.339844 C 245.539062 278.96875 246.070312 277.585938 246.570312 276.1875 C 247.066406 274.792969 247.53125 273.386719 247.960938 271.964844 C 248.394531 270.546875 248.789062 269.117188 249.148438 267.679688 C 249.507812 266.238281 249.832031 264.792969 250.121094 263.339844 C 250.410156 261.882812 250.660156 260.421875 250.878906 258.957031 C 251.097656 257.488281 251.277344 256.019531 251.421875 254.542969 C 251.566406 253.066406 251.675781 251.585938 251.746094 250.105469 C 251.820312 248.625 251.855469 247.144531 251.855469 245.660156 C 251.855469 244.390625 251.855469 243.128906 251.765625 241.875 L 251.765625 145.976562 C 275.027344 167.261719 319.25 169.101562 319.25 169.101562 Z M 319.25 169.101562 " fill-opacity="1" fill-rule="nonzero"/><path fill="#ebebeb" d="M 238.160156 50.914062 C 240.597656 64.179688 247.710938 84.917969 268.449219 97.054688 C 252.597656 78.59375 251.800781 54.769531 251.800781 51.335938 L 251.800781 50.914062 Z M 238.160156 50.914062 " fill-opacity="1" fill-rule="nonzero"/><path fill="#ebebeb" d="M 319.25 169.101562 L 319.25 119.070312 C 314.238281 118.886719 309.273438 118.304688 304.355469 117.320312 L 304.355469 156.703125 C 304.355469 156.703125 260.132812 154.890625 236.890625 133.605469 L 236.890625 229.476562 C 236.941406 230.730469 236.976562 231.992188 236.976562 233.261719 C 236.976562 235.300781 236.90625 237.335938 236.769531 239.367188 C 236.632812 241.402344 236.425781 243.425781 236.152344 245.445312 C 235.878906 247.464844 235.535156 249.472656 235.128906 251.46875 C 234.71875 253.464844 234.242188 255.445312 233.699219 257.410156 C 233.15625 259.371094 232.546875 261.316406 231.871094 263.238281 C 231.195312 265.160156 230.457031 267.058594 229.65625 268.933594 C 228.855469 270.804688 227.988281 272.648438 227.0625 274.464844 C 226.136719 276.277344 225.148438 278.058594 224.101562 279.808594 C 223.054688 281.554688 221.953125 283.265625 220.789062 284.941406 C 219.628906 286.613281 218.410156 288.246094 217.136719 289.839844 C 215.863281 291.429688 214.539062 292.976562 213.164062 294.480469 C 211.785156 295.980469 210.363281 297.433594 208.886719 298.839844 C 207.410156 300.246094 205.890625 301.601562 204.324219 302.90625 C 202.757812 304.207031 201.152344 305.457031 199.5 306.652344 C 197.851562 307.847656 196.160156 308.984375 194.433594 310.066406 C 192.707031 311.148438 190.945312 312.167969 189.148438 313.132812 C 187.351562 314.09375 185.527344 314.996094 183.667969 315.832031 C 181.8125 316.671875 179.929688 317.449219 178.019531 318.160156 C 176.109375 318.871094 174.179688 319.519531 172.226562 320.101562 C 170.273438 320.683594 168.304688 321.199219 166.316406 321.644531 C 164.328125 322.09375 162.328125 322.476562 160.316406 322.789062 C 158.300781 323.105469 156.28125 323.351562 154.25 323.527344 C 152.222656 323.703125 150.1875 323.8125 148.148438 323.855469 C 146.113281 323.894531 144.078125 323.867188 142.042969 323.769531 C 140.007812 323.671875 137.976562 323.507812 135.953125 323.273438 C 133.929688 323.039062 131.914062 322.738281 129.910156 322.367188 C 127.90625 321.996094 125.917969 321.5625 123.945312 321.058594 C 121.96875 320.554688 120.015625 319.984375 118.078125 319.347656 C 116.140625 318.710938 114.230469 318.011719 112.339844 317.246094 C 110.453125 316.480469 108.59375 315.65625 106.757812 314.765625 C 104.925781 313.875 103.125 312.921875 101.355469 311.910156 C 99.589844 310.898438 97.855469 309.828125 96.160156 308.699219 C 97.71875 310.308594 99.332031 311.859375 101.007812 313.347656 C 102.679688 314.839844 104.40625 316.261719 106.183594 317.625 C 107.964844 318.988281 109.789062 320.28125 111.664062 321.507812 C 113.539062 322.730469 115.457031 323.886719 117.417969 324.96875 C 119.378906 326.054688 121.378906 327.0625 123.414062 328 C 125.449219 328.933594 127.515625 329.792969 129.613281 330.574219 C 131.714844 331.359375 133.839844 332.0625 135.992188 332.6875 C 138.140625 333.308594 140.3125 333.855469 142.503906 334.316406 C 144.695312 334.78125 146.902344 335.164062 149.121094 335.460938 C 151.34375 335.761719 153.570312 335.980469 155.808594 336.113281 C 158.042969 336.25 160.28125 336.300781 162.519531 336.269531 C 164.761719 336.238281 166.996094 336.125 169.226562 335.925781 C 171.460938 335.730469 173.679688 335.449219 175.890625 335.085938 C 178.101562 334.726562 180.296875 334.28125 182.472656 333.757812 C 184.652344 333.230469 186.808594 332.628906 188.941406 331.941406 C 191.074219 331.257812 193.175781 330.496094 195.253906 329.65625 C 197.332031 328.8125 199.371094 327.898438 201.382812 326.90625 C 203.390625 325.914062 205.359375 324.847656 207.289062 323.710938 C 209.21875 322.570312 211.101562 321.363281 212.941406 320.085938 C 214.78125 318.808594 216.570312 317.464844 218.3125 316.050781 C 220.050781 314.640625 221.738281 313.167969 223.367188 311.632812 C 225 310.097656 226.570312 308.503906 228.082031 306.851562 C 229.59375 305.199219 231.042969 303.492188 232.429688 301.730469 C 233.816406 299.972656 235.136719 298.164062 236.386719 296.304688 C 237.640625 294.449219 238.820312 292.546875 239.929688 290.601562 C 241.042969 288.65625 242.078125 286.671875 243.042969 284.648438 C 244.007812 282.625 244.894531 280.570312 245.707031 278.484375 C 246.515625 276.394531 247.25 274.28125 247.902344 272.136719 C 248.558594 269.996094 249.132812 267.832031 249.625 265.648438 C 250.121094 263.460938 250.53125 261.261719 250.863281 259.046875 C 251.191406 256.828125 251.441406 254.605469 251.605469 252.371094 C 251.773438 250.136719 251.855469 247.898438 251.855469 245.660156 C 251.855469 244.390625 251.855469 243.128906 251.765625 241.875 L 251.765625 145.976562 C 275.027344 167.261719 319.25 169.101562 319.25 169.101562 Z M 319.25 169.101562 " fill-opacity="1" fill-rule="nonzero"/><path fill="#ebebeb" d="M 158.035156 194.972656 C 156.84375 194.609375 155.636719 194.300781 154.414062 194.050781 C 153.191406 193.800781 151.960938 193.605469 150.722656 193.472656 C 149.484375 193.335938 148.238281 193.257812 146.992188 193.238281 C 145.746094 193.21875 144.5 193.257812 143.257812 193.351562 C 142.015625 193.449219 140.777344 193.601562 139.550781 193.816406 C 138.320312 194.027344 137.105469 194.296875 135.902344 194.621094 C 134.699219 194.945312 133.511719 195.328125 132.34375 195.765625 C 131.175781 196.199219 130.03125 196.691406 128.910156 197.234375 C 127.785156 197.777344 126.691406 198.371094 125.625 199.019531 C 124.558594 199.664062 123.523438 200.359375 122.523438 201.101562 C 121.519531 201.84375 120.554688 202.628906 119.628906 203.460938 C 118.699219 204.292969 117.8125 205.167969 116.964844 206.085938 C 116.121094 207 115.316406 207.953125 114.558594 208.941406 C 113.800781 209.933594 113.09375 210.957031 112.429688 212.011719 C 111.769531 213.070312 111.15625 214.15625 110.597656 215.269531 C 110.035156 216.382812 109.527344 217.519531 109.074219 218.679688 C 108.621094 219.84375 108.222656 221.023438 107.878906 222.222656 C 107.535156 223.417969 107.246094 224.632812 107.015625 225.855469 C 106.785156 227.082031 106.613281 228.316406 106.496094 229.558594 C 106.378906 230.796875 106.324219 232.042969 106.324219 233.289062 C 106.324219 234.535156 106.382812 235.78125 106.5 237.023438 C 106.617188 238.261719 106.792969 239.496094 107.023438 240.722656 C 107.257812 241.945312 107.546875 243.15625 107.890625 244.355469 C 108.238281 245.554688 108.636719 246.734375 109.09375 247.894531 C 109.546875 249.054688 110.058594 250.191406 110.621094 251.304688 C 111.179688 252.417969 111.792969 253.503906 112.457031 254.558594 C 113.121094 255.613281 113.832031 256.636719 114.589844 257.625 C 115.347656 258.617188 116.152344 259.566406 117 260.480469 C 117.847656 261.394531 118.734375 262.269531 119.664062 263.101562 C 120.59375 263.929688 121.5625 264.71875 122.5625 265.457031 C 123.566406 266.199219 124.601562 266.894531 125.667969 267.535156 C 126.734375 268.179688 127.832031 268.773438 128.953125 269.316406 C 127.722656 267.632812 126.625 265.863281 125.671875 264.007812 C 124.714844 262.148438 123.90625 260.230469 123.25 258.25 C 122.59375 256.265625 122.097656 254.246094 121.757812 252.1875 C 121.417969 250.125 121.238281 248.054688 121.222656 245.964844 C 121.210938 243.878906 121.355469 241.800781 121.664062 239.738281 C 121.976562 237.671875 122.441406 235.644531 123.070312 233.652344 C 123.695312 231.660156 124.472656 229.730469 125.402344 227.859375 C 126.332031 225.992188 127.398438 224.203125 128.609375 222.5 C 129.816406 220.800781 131.148438 219.199219 132.609375 217.707031 C 134.066406 216.214844 135.632812 214.839844 137.304688 213.59375 C 138.976562 212.34375 140.738281 211.230469 142.585938 210.257812 C 144.429688 209.285156 146.34375 208.460938 148.316406 207.785156 C 150.292969 207.109375 152.308594 206.59375 154.367188 206.234375 C 156.421875 205.875 158.496094 205.675781 160.582031 205.644531 C 162.667969 205.609375 164.746094 205.734375 166.816406 206.023438 C 168.882812 206.316406 170.914062 206.761719 172.910156 207.371094 L 172.910156 155.792969 C 169.027344 155.304688 165.128906 155.070312 161.214844 155.082031 C 160.136719 155.082031 159.078125 155.082031 158.007812 155.144531 Z M 158.035156 194.972656 " fill-opacity="1" fill-rule="nonzero"/></svg>