<svg width="302" height="60" viewBox="0 0 302 60" fill="none" xmlns="http://www.w3.org/2000/svg">
<path d="M96.2177 21.013H87.1965L82.3213 46.2087H75.077L79.9522 21.013H70.931L72.2068 14.5435H97.539L96.2177 21.013Z" fill="white"/>
<path d="M117.129 38.5547L124.283 35.9576C124.693 38.7822 126.834 40.5137 129.932 40.5137C132.575 40.5137 134.214 39.2379 134.214 37.1879C134.214 31.6295 121.184 33.7705 121.184 24.0661C121.184 18.0977 126.15 13.9517 133.349 13.9517C139.408 13.9517 143.873 17.0044 144.147 21.3325L136.994 23.8386C136.584 21.3785 135.126 20.1482 132.711 20.1482C130.296 20.1482 128.702 21.333 128.702 23.1099C128.702 28.1217 141.732 26.2537 141.732 36.3227C141.732 42.5647 136.539 46.8018 128.747 46.8018C122.278 46.8018 118.085 43.7945 117.129 38.5552L117.129 38.5547Z" fill="white"/>
<path d="M170.436 21.013H161.415L156.539 46.2087H149.295L154.17 21.013H145.149L146.425 14.5435H171.757L170.436 21.013Z" fill="white"/>
<path d="M170.298 33.3601L173.898 14.543H181.187L177.588 33.3601C176.768 37.6426 178.59 39.9667 182.053 39.9667C185.333 39.9667 187.521 38.0078 188.25 34.2713L192.077 14.543H199.321L195.494 34.2713C193.945 42.2903 188.614 46.8009 181.096 46.8009C172.713 46.8009 168.795 40.969 170.298 33.3601Z" fill="white"/>
<path d="M229.118 28.5309C229.118 38.4633 221.509 46.2087 210.21 46.2087H197.498L203.649 14.5435H215.176C223.605 14.5435 229.118 20.0563 229.118 28.5309ZM221.6 28.6219C221.6 23.6557 218.866 20.9675 214.219 20.9675H209.617L206.018 39.7847H210.802C217.09 39.7847 221.6 34.955 221.6 28.6219H221.6Z" fill="white"/>
<path d="M235.223 14.5435H242.467L236.316 46.2087H229.072L235.223 14.5435Z" fill="white"/>
<path d="M242.376 32.0391C242.376 22.1977 250.304 13.9512 260.738 13.9512C269.577 13.9512 275.636 19.8286 275.636 28.6218C275.636 38.8278 267.481 46.8007 257.366 46.8007C248.436 46.8007 242.377 40.6042 242.377 32.0386L242.376 32.0391ZM268.118 29.0779C268.118 24.1117 264.975 20.8314 260.145 20.8314C254.313 20.8314 249.893 25.7521 249.893 31.584C249.893 36.5958 253.037 39.9216 257.867 39.9216C263.79 39.9216 268.118 34.9554 268.118 29.0779Z" fill="white"/>
<path d="M251.502 40.4796C251.6 40.3145 251.689 40.1626 251.779 40.0102C252.071 39.5133 252.387 39.0281 252.652 38.5169C253.04 37.7676 253.257 36.9606 253.345 36.1198C253.409 35.5054 253.391 34.8947 253.309 34.283C253.258 33.9105 253.217 33.5358 253.317 33.1623C253.401 32.849 253.577 32.587 253.771 32.3357C254.455 31.4499 255.012 30.4852 255.566 29.5168C255.807 29.0961 256.056 28.6802 256.304 28.2632C256.417 28.0717 256.588 28.0574 256.741 28.223C256.986 28.4865 257.165 28.794 257.345 29.1025C257.536 29.4295 257.718 29.765 257.941 30.0693C258.305 30.5677 258.828 30.8551 259.407 31.0276C259.958 31.1916 260.521 31.3181 261.079 31.4589C261.315 31.5187 261.551 31.4774 261.787 31.4478C262.277 31.3853 262.767 31.3202 263.258 31.2551C263.53 31.2192 263.794 31.1504 264.045 31.0382C264.062 31.0308 264.079 31.0249 264.123 31.0075C263.974 31.3155 263.843 31.6007 263.7 31.8806C263.534 32.2071 263.461 32.5622 263.37 32.9125C263.239 33.4152 263.262 33.9184 263.371 34.4217C263.506 35.0408 263.438 35.6509 263.26 36.2489C263.082 36.8415 262.873 37.4242 262.692 38.0158C262.468 38.7418 262.392 39.4868 262.432 40.2451C262.436 40.3208 262.432 40.3965 262.432 40.4801H251.502L251.502 40.4796Z" fill="white"/>
<path d="M106.517 18.5297L107.288 14.5435H100.044L98.8122 20.8855L106.517 18.5297Z" fill="white"/>
<path d="M102.414 39.7389L104.448 29.2212L96.7352 31.5797L93.8936 46.209H114.988L116.264 39.7389H102.414Z" fill="white"/>
<path d="M105.265 25.0005L105.7 22.751L98.0258 25.0973L98.0063 25.0343L97.5554 27.3574L105.265 25.0005Z" fill="white"/>
</svg>
